<!DOCTYPE svg PUBLIC "-//W3C//DTD SVG 1.1//EN" "http://www.w3.org/Graphics/SVG/1.1/DTD/svg11.dtd">
<svg fill="#ffffff" version="1.1" id="Layer_1" xmlns:x="&amp;ns_extend;" xmlns:i="&amp;ns_ai;" xmlns:graph="&amp;ns_graphs;" xmlns="http://www.w3.org/2000/svg" xmlns:xlink="http://www.w3.org/1999/xlink" width="800px" height="800px" viewBox="0 0 24 24" enable-background="new 0 0 24 24" xml:space="preserve" stroke="#ffffff">
  <g id="SVGRepo_bgCarrier" stroke-width="0"/>
  <g id="SVGRepo_tracerCarrier" stroke-linecap="round" stroke-linejoin="round"/>
  <g id="SVGRepo_iconCarrier">
    <metadata>
      <a0:sfw xmlns:a0="http://www.w3.org/2000/svg" xmlns="&amp;ns_sfw;">
        <a0:slices> </a0:slices>
        <a0:slicesourcebounds width="505" height="984" bottomleftorigin="true" x="0" y="-120"> </a0:slicesourcebounds>
      </a0:sfw>
    </metadata>
    <g>
      <g>
        <g>
          <path d="M20,24H4c-2.2,0-4-1.8-4-4V4c0-2.2,1.8-4,4-4h16c2.2,0,4,1.8,4,4v16C24,22.2,22.2,24,20,24z M4,2C2.9,2,2,2.9,2,4v16 c0,1.1,0.9,2,2,2h16c1.1,0,2-0.9,2-2V4c0-1.1-0.9-2-2-2H4z"/>
        </g>
      </g>
      <g>
        <g>
          <path d="M8,24c-0.6,0-1-0.4-1-1V1c0-0.6,0.4-1,1-1s1,0.4,1,1v22C9,23.6,8.6,24,8,24z"/>
        </g>
      </g>
      <g>
        <g>
          <!-- Flèche inversée, positionnée à droite -->
          <path d="M18,13c0.3,0,0.5-0.1,0.7-0.3c0.4-0.4,0.4-1,0-1.4l-3-3c-0.4-0.4-1-0.4-1.4,0s-0.4,1,0,1.4l3,3C17.5,12.9,17.7,13,18,13z"/>
        </g>
      </g>
      <g>
        <g>
          <!-- Flèche inversée, positionnée à droite -->
          <path d="M15,16c0.3,0,0.5-0.1,0.7-0.3l3-3c0.4-0.4,0.4-1,0-1.4s-1-0.4-1.4,0l-3,3c-0.4,0.4-0.4,1,0,1.4C14.5,15.9,14.7,16,15,16z"/>
        </g>
      </g>
    </g>
  </g>
</svg>